HIERARCHY
ROOT Hips
{
    OFFSET 0.0 0.0 0.0
    CHANNELS 6 Xposition Yposition Zposition Zrotation Xrotation Yrotation
    JOINT Spine
    {
        OFFSET 0.0 5.0 0.0
        CHANNELS 3 Zrotation Xrotation Yrotation
        JOINT Chest
        {
            OFFSET 0.0 5.0 0.0
            CHANNELS 3 Zrotation Xrotation Yrotation
            JOINT Neck
            {
                OFFSET 0.0 8.0 0.0
                CHANNELS 3 Zrotation Xrotation Yrotation
                JOINT Head
                {
                    OFFSET 0.0 5.0 0.0
                    CHANNELS 3 Zrotation Xrotation Yrotation
                    End Site
                    {
                        OFFSET 0.0 3.0 0.0
                    }
                }
            }
            JOINT LeftShoulder
            {
                OFFSET -5.0 0.0 0.0
                CHANNELS 3 Zrotation Xrotation Yrotation
                JOINT LeftArm
                {
                    OFFSET 0.0 -10.0 0.0
                    CHANNELS 3 Zrotation Xrotation Yrotation
                    JOINT LeftForeArm
                    {
                        OFFSET 0.0 -10.0 0.0
                        CHANNELS 3 Zrotation Xrotation Yrotation
                        End Site
                        {
                            OFFSET 0.0 -3.0 0.0
                        }
                    }
                }
            }
        }
    }
}

MOTION
Frames: 40
Frame Time: 0.033333
970.000000 442.938926 126.264465 0.000000 0.000000 0.000000 0.000000 0.000000 0.000000 29.678605 -29.843619 0.000000 180.000000 -2.820552 0.000000 29.744881 -0.308992 -0.000000 150.255119 5.303866 30.000000 19.983107 -2.607207 0.000000 18.000000 -0.249895 0.000000
1354.522934 467.411410 128.831775 0.000000 0.000000 0.000000 0.000000 0.000000 0.000000 150.622570 17.494351 4.973798 -29.377430 -11.302351 4.973798 140.176400 -0.349746 3.759997 -12.221629 3.430403 29.763441 132.794256 -7.535905 -3.759997 -2.626015 -0.113037 0.313953
969.997807 442.887864 139.130396 0.000000 0.000000 0.000000 0.000000 0.000000 0.000000 31.061399 -13.909346 9.635073 180.000000 -11.448497 9.635073 30.285790 6.833334 7.460697 149.714210 1.371995 29.057495 19.151579 -8.091832 -7.460697 18.000000 0.860847 0.626666
1246.736984 514.278152 124.792967 0.000000 0.000000 0.000000 0.000000 0.000000 0.000000 143.557092 3.860828 13.690942 -36.442908 -7.533350 13.690942 133.761037 8.346921 11.043737 -156.950665 -5.925854 27.893295 0.000000 0.000000 0.000000 1.928484 0.511413 0.936907
1245.221100 458.637464 109.925016 0.000000 0.000000 0.000000 0.000000 0.000000 0.000000 160.701064 -2.650881 16.886559 -19.298936 -0.064537 16.886559 140.193827 4.230324 14.452610 -157.554825 -5.535315 26.289200 29.500467 4.987128 -14.452610 -15.049953 -0.498713 1.243449
1257.365570 418.514181 97.071513 0.000000 0.000000 0.000000 0.000000 0.000000 0.000000 -143.710676 12.140372 19.021130 36.289324 3.365342 19.021130 163.220413 -6.988935 17.633558 11.688054 1.057937 24.270510 152.038385 -1.961402 -17.633558 -2.339948 0.187268 1.545085
1275.099564 408.163741 108.275634 0.000000 0.000000 0.000000 0.000000 0.000000 0.000000 -132.929531 -20.075595 19.960535 47.070469 24.512009 19.960535 173.491912 -11.822217 20.536413 -160.709681 -4.241612 21.869059 33.138793 5.540518 -20.536413 -14.686121 -0.554052 1.840623
1290.611115 384.880857 92.123561 0.000000 0.000000 0.000000 0.000000 0.000000 0.000000 -132.705235 0.468986 19.645745 47.294765 6.726709 19.645745 -173.778854 -0.959053 23.115397 20.496835 5.184014 19.122720 -161.220290 -4.634185 -23.115397 1.723235 0.370315 2.128896
1302.817154 380.305352 116.469994 0.000000 0.000000 0.000000 0.000000 0.000000 0.000000 -131.493915 4.790265 18.096541 48.506085 -3.966406 18.096541 -165.393697 -0.640212 25.329838 23.154815 -2.979057 16.074804 -178.200316 0.554451 -25.329838 0.138141 -0.072534 2.408768
1304.997711 379.563582 107.246595 0.000000 0.000000 0.000000 0.000000 0.000000 0.000000 -126.727972 -0.664801 15.410265 53.272028 1.646435 15.410265 -160.219593 -3.660753 27.144812 28.448880 -2.841178 12.773379 -174.368770 0.168605 -27.144812 0.079526 0.102060 2.679134
1311.668472 386.890390 111.838912 0.000000 0.000000 0.000000 0.000000 0.000000 0.000000 -122.308728 2.761529 11.755705 57.691272 -17.804105 11.755705 -158.801130 3.929052 28.531695 150.942637 -12.367052 9.270510 -154.878332 -3.565008 -28.531695 2.695409 0.424895 2.938926
1305.131836 395.180186 87.081964 0.000000 0.000000 0.000000 0.000000 0.000000 0.000000 -125.112810 9.060775 7.362491 54.887190 -18.875301 7.362491 -146.487292 5.688983 29.468618 -175.167369 -4.925773 5.621439 -159.224034 -4.017870 -29.468618 1.782042 0.540115 3.187120
1296.320457 392.734526 79.406648 0.000000 0.000000 0.000000 0.000000 0.000000 0.000000 -131.035750 -9.035049 2.506665 48.964250 7.108812 2.506665 -128.969563 0.776085 29.940802 38.856147 5.247102 1.883716 -134.776850 -0.928594 -29.940802 3.458429 -0.055396 3.422736
1306.963577 386.612041 87.361961 0.000000 0.000000 0.000000 0.000000 0.000000 0.000000 -124.469622 8.981469 -2.506665 55.530378 -12.579651 -2.506665 -109.994856 0.973837 29.940802 37.691309 -0.098441 -1.883716 -118.274788 -0.516553 -29.940802 5.098336 -0.016265 3.644843
969.892723 442.572198 61.043191 0.000000 0.000000 0.000000 0.000000 0.000000 0.000000 41.287575 5.944046 -7.362491 180.000000 9.655433 -7.362491 30.974696 -7.397585 29.468618 149.025304 4.281913 -5.621439 15.072869 -2.689471 -29.468618 18.000000 0.198712 3.852566
969.876883 442.545207 46.768708 0.000000 0.000000 0.000000 0.000000 0.000000 0.000000 42.241956 -24.149265 -11.755705 180.000000 -5.331837 -11.755705 30.826133 4.516664 28.531695 149.173867 1.538979 -9.270510 14.823070 0.578401 -28.531695 18.000000 -0.189708 4.045085
969.859960 442.518116 64.204816 0.000000 0.000000 0.000000 0.000000 0.000000 0.000000 43.199779 -26.114449 -15.410265 180.000000 9.364504 -15.410265 30.649504 -2.048512 27.144812 149.350496 -3.834188 -12.773379 14.587557 8.117759 -27.144812 18.000000 -0.598988 4.221640
969.841956 442.490926 71.452763 0.000000 0.000000 0.000000 0.000000 0.000000 0.000000 44.157210 40.487907 -18.096541 180.000000 -12.505568 -18.096541 30.446417 -7.136004 25.329838 149.553583 -16.311572 -16.074804 14.366154 1.589665 -25.329838 18.000000 -0.057692 4.381533
969.822873 442.463637 44.482725 0.000000 0.000000 0.000000 0.000000 0.000000 0.000000 45.110117 -42.864046 -19.645745 180.000000 3.820339 -19.645745 30.218633 13.096833 23.115397 149.781367 1.587163 -19.122720 14.158653 0.333332 -23.115397 18.000000 0.643743 4.524135
969.802712 442.436251 40.412117 0.000000 0.000000 0.000000 0.000000 0.000000 0.000000 46.054109 -25.362791 -19.960535 180.000000 21.447042 -19.960535 29.968037 -8.270879 20.536413 150.031963 3.668870 -21.869059 13.964823 -3.751479 -20.536413 18.000000 0.446056 4.648882
1187.040939 541.658249 45.449003 0.000000 0.000000 0.000000 0.000000 0.000000 0.000000 82.806623 -11.215056 -19.021130 -97.193377 10.362813 -19.021130 45.395981 9.008743 17.633558 -156.144455 -2.263060 -24.270510 0.000000 0.000000 0.000000 0.000000 0.000000 0.000000
1182.242889 522.024286 37.623438 0.000000 0.000000 0.000000 0.000000 0.000000 0.000000 -105.721938 -12.405044 -16.886559 74.278062 1.886658 -16.886559 -155.708006 -2.083153 14.452610 -157.302521 -2.062487 -26.289200 0.000000 0.000000 0.000000 2.684983 0.204956 4.842916
1180.914459 527.065626 56.015518 0.000000 0.000000 0.000000 0.000000 0.000000 0.000000 88.055617 -7.307112 -13.690942 -91.944383 1.952975 -13.690942 -158.862018 -2.220836 11.043737 -151.747289 -1.823899 -27.893295 0.000000 0.000000 0.000000 0.000000 0.000000 0.000000
1236.800194 541.387432 49.570283 0.000000 0.000000 0.000000 0.000000 0.000000 0.000000 -85.588400 -19.394050 -9.635073 94.411600 3.967540 -9.635073 -159.297106 10.087821 7.460697 -157.915391 -1.746965 -29.057495 26.607362 1.897718 -7.460697 14.926890 0.785955 4.960574
1161.066513 575.006626 53.487344 0.000000 0.000000 0.000000 0.000000 0.000000 0.000000 -81.021168 12.513135 -4.973798 98.978832 -0.706317 -4.973798 -102.851701 5.350118 3.759997 -157.041007 -2.401697 -29.763441 21.429890 1.809262 -3.759997 10.859432 0.430542 4.990134
1255.636253 512.645942 55.127998 0.000000 0.000000 0.000000 0.000000 0.000000 0.000000 77.832564 -3.975204 -0.000000 -102.167436 5.400356 -0.000000 -158.264834 -2.770712 0.000000 -130.745502 2.631408 -30.000000 -157.699225 -2.975779 -0.000000 0.000000 0.000000 0.000000
1265.118484 521.473864 68.032063 0.000000 0.000000 0.000000 0.000000 0.000000 0.000000 64.078276 -1.006746 4.973798 -115.921724 -8.564600 4.973798 41.397952 3.979265 -3.759997 -139.329851 -1.968955 -29.763441 20.223252 0.597160 3.759997 -16.047574 0.145007 4.990134
1228.099480 522.138258 48.544494 0.000000 0.000000 0.000000 0.000000 0.000000 0.000000 71.050901 8.273919 9.635073 -108.949099 -8.629803 9.635073 150.099970 -5.486219 -7.460697 -139.894702 -3.832416 -29.057495 -156.275691 -3.094670 7.460697 0.000000 0.000000 0.000000
1240.357246 528.695873 65.269417 0.000000 0.000000 0.000000 0.000000 0.000000 0.000000 65.413351 -2.527972 13.690942 -114.586649 -11.749478 13.690942 147.242328 1.198430 -11.043737 -154.470720 -2.599066 -27.893295 25.557225 2.805590 11.043737 -15.444278 -0.280559 4.911436
1231.815262 551.380248 44.732562 0.000000 0.000000 0.000000 0.000000 0.000000 0.000000 56.412506 15.468180 16.886559 -123.587494 -17.132384 16.886559 -153.392336 6.232827 -14.452610 -154.784582 -3.164444 -26.289200 24.191555 3.839761 14.452610 -15.580844 -0.383976 4.842916
1221.475182 508.360147 66.629407 0.000000 0.000000 0.000000 0.000000 0.000000 0.000000 77.450622 -8.005152 19.021130 -102.549378 -1.943240 19.021130 -156.789784 -2.626052 -17.633558 -125.590168 -1.173282 -24.270510 -160.017240 -2.920192 17.633558 1.833434 0.458330 4.755283
969.477684 442.100429 67.072332 0.000000 0.000000 0.000000 0.000000 0.000000 0.000000 54.932575 19.209336 19.960535 180.000000 -11.048088 19.960535 25.919122 -1.559342 -20.536413 154.080878 -4.456282 -21.869059 12.612867 4.577104 20.536413 18.000000 0.019479 4.648882
1480.140495 518.878891 66.379161 0.000000 0.000000 0.000000 0.000000 0.000000 0.000000 -110.621767 -82.748819 19.645745 69.378233 63.806082 19.645745 -158.235933 -2.472008 -23.115397 166.031448 3.564637 -19.122720 -155.186432 -2.922353 23.115397 2.641553 0.324747 4.524135
1271.640472 556.840560 55.282714 0.000000 0.000000 0.000000 0.000000 0.000000 0.000000 -94.404719 -12.799097 18.096541 85.595281 -0.831442 18.096541 -62.417786 2.526543 -25.329838 23.992813 -3.173038 -16.074804 -76.856107 0.939782 25.329838 7.708835 0.038891 4.381533
1258.556786 530.268441 93.016323 0.000000 0.000000 0.000000 0.000000 0.000000 0.000000 78.355945 -5.188240 15.410265 -101.644055 1.165508 15.410265 35.068294 3.424142 -27.144812 -54.090640 7.390638 -12.773379 35.848220 -2.893766 27.144812 -8.104639 0.472189 4.221640
1250.800209 527.150567 81.297943 0.000000 0.000000 0.000000 0.000000 0.000000 0.000000 72.417769 -9.425075 11.755705 -107.582231 8.697996 11.755705 24.571109 0.740655 -28.531695 -39.196117 4.057386 -9.270510 10.411117 3.548669 28.531695 -9.048616 0.545492 4.045085
1243.466148 571.776259 71.568833 0.000000 0.000000 0.000000 0.000000 0.000000 0.000000 86.301473 -23.723437 7.362491 -93.698527 1.151453 7.362491 24.553534 1.806772 -29.468618 -153.460385 -3.640127 -5.621439 19.510484 3.281676 29.468618 -10.109500 -0.019718 3.852566
1261.883812 566.052918 104.315614 0.000000 0.000000 0.000000 0.000000 0.000000 0.000000 94.015209 12.871049 2.506665 -85.984791 -17.154946 2.506665 38.959993 -2.661905 -29.940802 -154.008305 -4.933874 -1.883716 20.870951 2.970182 29.940802 -10.872440 0.592864 3.644843
1284.436798 527.190542 108.697025 0.000000 0.000000 0.000000 0.000000 0.000000 0.000000 111.186365 6.134371 -2.506665 -68.813635 -13.180642 -2.506665 58.506163 3.074502 -29.940802 -19.138727 0.294270 1.883716 51.457372 -7.517045 29.940802 -5.203198 0.749470 3.422736
1272.860069 533.494012 111.875626 0.000000 0.000000 0.000000 0.000000 0.000000 0.000000 72.301471 -12.683248 -7.362491 -107.698529 12.009930 -7.362491 78.802573 2.244664 -29.468618 -154.772375 -4.478901 5.621439 26.927455 3.959709 29.468618 -15.307255 -0.395971 3.187120
